{"title":"42.2013.HDRip.XViD-NoGrp","uid":8423073,"size":465828981,"categoryP":"video","categoryS":"movies","magnet":"?xt=urn:btih:39c6a8ffd6af7d0e41168425e93c4a3ef772186d&amp;dn=42.2013.HDRip.XViD-NoGrp&amp;tr=udp%3A%2F%2Ftracker.openbittorrent.com%3A80&amp;tr=udp%3A%2F%2Fopen.demonii.com%3A1337&amp;tr=udp%3A%2F%2Ftracker.coppersurfer.tk%3A6969&amp;tr=udp%3A%2F%2Fexodus.desync.com%3A6969","seeders":2,"leechers":0,"uploader":"xxxlavalxxx","files":-1,"time":1367259811,"description":"\n\n\n &lt;a href=&quot;\nhttp://www.imdb.com/title/tt0453562/&quot; rel=&quot;nofollow&quot; target=&quot;_NEW&quot;&gt;\nhttp://www.imdb.com/title/tt0453562/&lt;/a&gt;\n\n\nThe life story of Jackie Robinson and his history-making signing with the Brooklyn Dodgers under the guidance of team executive Branch Rickey. \n\n\n\nDirector:\n Brian Helgeland \n\nWriter:\n Brian Helgeland (screenplay) \n\nStars:\n Chadwick Boseman, Harrison Ford, Nicole Beharie \n\nGenres:\n  Biography |  Drama |  Sport \n\nCountry:\n USA \n\nLanguage:\n English \n\n\nFormat                                   : RealMedia\nFile size                                : 444 MiB\nDuration                                 : 1h 49mn\nOverall bit rate                         : 557 Kbps\nMovie name                               : 42-rm\n\nVideo\nID                                       : 1\nFormat                                   : RealVideo 4\nCodec ID                                 : RV40\nCodec ID/Info                            : Based on AVC (H.264), Real Player 9\nDuration                                 : 1h 49mn\nBit rate                                 : 461 Kbps\nWidth                                    : 720 pixels\nHeight                                   : 408 pixels\nDisplay aspect ratio                     : 16:9\nFrame rate                               : 23.976 fps\nBits/(Pixel*Frame)                       : 0.065\nStream size                              : 362 MiB (82%)\n\nAudio\nID                                       : 0\nFormat                                   : AAC\nFormat/Info                              : Advanced Audio Codec\nFormat profile                           : LC\nCodec ID                                 : raac\nCodec ID/Info                            : Real Player 9\nDuration                                 : 1h 49mn\nBit rate                                 : 96.0 Kbps\nChannel(s)                               : 2 channels\nSampling rate                            : 44.1 KHz\nBit depth                                : 16 bits\nCompression mode                         : Lossy\nStream size                              : 75.5 MiB (17%)\n\n\n\n    &lt;a href=&quot;\thttp://www.shotpix.com/images/00746428984902932130.jpg&quot; rel=&quot;nofollow&quot; target=&quot;_NEW&quot;&gt;\thttp://www.shotpix.com/images/00746428984902932130.jpg&lt;/a&gt;\n    &lt;a href=&quot;\thttp://www.shotpix.com/images/20573439409005337832.jpg&quot; rel=&quot;nofollow&quot; target=&quot;_NEW&quot;&gt;\thttp://www.shotpix.com/images/20573439409005337832.jpg&lt;/a&gt;\n    &lt;a href=&quot;\thttp://www.shotpix.com/images/71891290044232159527.jpg&quot; rel=&quot;nofollow&quot; target=&quot;_NEW&quot;&gt;\thttp://www.shotpix.com/images/71891290044232159527.jpg&lt;/a&gt;","torrent":{"xt":"urn:btih:39c6a8ffd6af7d0e41168425e93c4a3ef772186d","amp;dn":"42.2013.HDRip.XViD-NoGrp","amp;tr":["udp%3A%2F%2Ftracker.openbittorrent.com%3A80","udp%3A%2F%2Fopen.demonii.com%3A1337","udp%3A%2F%2Ftracker.coppersurfer.tk%3A6969","udp%3A%2F%2Fexodus.desync.com%3A6969"],"infoHash":"39c6a8ffd6af7d0e41168425e93c4a3ef772186d","infoHashBuffer":{"type":"Buffer","data":[57,198,168,255,214,175,125,14,65,22,132,37,233,60,74,62,247,114,24,109]},"announce":[],"urlList":[]}}